<?xml version="1.0" encoding="UTF-8" standalone="no"?><!DOCTYPE svg PUBLIC "-//W3C//DTD SVG 1.1//EN" "http://www.w3.org/Graphics/SVG/1.1/DTD/svg11.dtd"><svg width="100%" height="100%" viewBox="0 0 512 512" version="1.1" xmlns="http://www.w3.org/2000/svg" xmlns:xlink="http://www.w3.org/1999/xlink" xml:space="preserve" xmlns:serif="http://www.serif.com/" style="fill-rule:evenodd;clip-rule:evenodd;stroke-linejoin:round;stroke-miterlimit:1.41421;"><path d="M352,0l-192,0c-88.352,0 -160,71.648 -160,160l0,192c0,88.352 71.648,160 160,160l192,0c88.352,0 160,-71.648 160,-160l0,-192c0,-88.352 -71.648,-160 -160,-160Zm112,352c0,61.76 -50.24,112 -112,112l-192,0c-61.76,0 -112,-50.24 -112,-112l0,-192c0,-61.76 50.24,-112 112,-112l192,0c61.76,0 112,50.24 112,112l0,192Z" style="fill:#fff;fill-rule:nonzero;"/><path d="M256,128c-70.688,0 -128,57.312 -128,128c0,70.688 57.312,128 128,128c70.688,0 128,-57.312 128,-128c0,-70.688 -57.312,-128 -128,-128Zm0,208c-44.096,0 -80,-35.904 -80,-80c0,-44.128 35.904,-80 80,-80c44.096,0 80,35.872 80,80c0,44.096 -35.904,80 -80,80Z" style="fill:#fff;fill-rule:nonzero;"/><circle cx="393.6" cy="118.4" r="17.056" style="fill:#fff;"/></svg>