<?xml version="1.0" encoding="UTF-8" standalone="no"?><!DOCTYPE svg PUBLIC "-//W3C//DTD SVG 1.1//EN" "http://www.w3.org/Graphics/SVG/1.1/DTD/svg11.dtd"><svg width="100%" height="100%" viewBox="0 0 512 512" version="1.1" xmlns="http://www.w3.org/2000/svg" xmlns:xlink="http://www.w3.org/1999/xlink" xml:space="preserve" xmlns:serif="http://www.serif.com/" style="fill-rule:evenodd;clip-rule:evenodd;stroke-linejoin:round;stroke-miterlimit:1.41421;"><path d="M512,97.248c-19.04,8.352 -39.328,13.888 -60.48,16.576c21.76,-12.992 38.368,-33.408 46.176,-58.016c-20.288,12.096 -42.688,20.64 -66.56,25.408c-19.264,-20.512 -46.72,-33.216 -76.672,-33.216c-58.112,0 -104.896,47.168 -104.896,104.992c0,8.32 0.704,16.32 2.432,23.936c-87.264,-4.256 -164.48,-46.08 -216.352,-109.792c-9.056,15.712 -14.368,33.696 -14.368,53.056c0,36.352 18.72,68.576 46.624,87.232c-16.864,-0.32 -33.408,-5.216 -47.424,-12.928c0,0.32 0,0.736 0,1.152c0,51.008 36.384,93.376 84.096,103.136c-8.544,2.336 -17.856,3.456 -27.52,3.456c-6.72,0 -13.504,-0.384 -19.872,-1.792c13.6,41.568 52.192,72.128 98.08,73.12c-35.712,27.936 -81.056,44.768 -130.144,44.768c-8.608,0 -16.864,-0.384 -25.12,-1.44c46.496,29.984 101.6,47.104 161.024,47.104c193.152,0 298.752,-160 298.752,-298.688c0,-4.64 -0.16,-9.12 -0.384,-13.568c20.832,-14.784 38.336,-33.248 52.608,-54.496Z" style="fill:#fff;fill-rule:nonzero;"/></svg>